<svg width="716" height="558" viewBox="0 0 716 558" fill="none" xmlns="http://www.w3.org/2000/svg">
<path d="M-432.852 214.771C-265.958 365.551 417.708 87.729 465.429 202.327C509.768 308.805 431.271 471.817 590.91 529.997C693.834 567.508 877.112 508.711 1059.37 548.036C1124.02 561.985 1225.29 581.975 1225.29 581.975M-426.955 191.766C-260.061 342.546 394.135 75.6072 441.855 190.205C486.195 296.683 407.698 459.695 567.336 517.876C670.261 555.387 853.539 496.589 1035.8 535.915C1100.45 549.863 1201.71 569.853 1201.71 569.853M-417.096 172.594C-250.202 323.374 370.561 63.4854 418.282 178.083C462.621 284.562 384.124 447.573 543.763 505.754C646.688 543.265 829.965 484.467 1012.23 523.793C1076.87 537.742 1178.14 557.731 1178.14 557.731M-406.142 151.291C-239.248 302.071 346.988 51.3635 394.709 165.962C439.048 272.44 360.551 435.452 520.189 493.632C623.114 531.143 806.392 472.345 988.653 511.671C1053.3 525.62 1154.57 545.609 1154.57 545.609M-395.188 129.988C-228.294 280.769 323.414 39.2417 371.135 153.84C415.475 260.318 336.978 423.33 496.616 481.51C599.541 519.021 782.819 460.223 965.079 499.549C1029.73 513.498 1130.99 533.487 1130.99 533.487M-387.155 114.367C-220.261 265.147 299.841 27.1199 347.562 141.718C391.901 248.196 313.404 411.208 473.043 469.388C575.967 506.899 759.245 448.102 941.506 487.427C1006.15 501.376 1107.42 521.366 1107.42 521.366M-380.217 100.875C-213.323 251.655 276.268 14.998 323.988 129.596C368.328 236.074 289.831 399.086 449.469 457.266C552.394 494.777 735.672 435.98 917.932 475.305C982.58 489.254 1083.85 509.244 1083.85 509.244M-372.549 85.963C-205.655 236.743 252.694 2.87617 300.415 117.474C344.755 223.952 266.258 386.964 425.896 445.145C528.821 482.656 712.098 423.858 894.359 463.184C959.007 477.132 1060.27 497.122 1060.27 497.122M-364.516 70.3411C-197.622 221.122 229.121 -9.24565 276.842 105.352C321.181 211.831 242.684 374.842 402.323 433.023C505.247 470.534 688.525 411.736 870.786 451.062C935.433 465.011 1063.58 490.691 1063.58 490.691M-357.145 56.006C-190.251 206.786 205.548 -21.3675 253.268 93.2305C297.608 199.709 219.111 362.721 378.749 420.901C481.674 458.412 664.952 399.614 847.212 438.94C911.86 452.889 1062.43 484.132 1062.43 484.132M-351.448 44.9285C-184.554 195.709 181.974 -33.4893 229.695 81.1086C274.034 187.587 195.538 350.599 355.176 408.779C458.101 446.29 641.378 387.492 823.639 426.818C888.287 440.767 1069.22 470.924 1069.22 470.924M-345.38 33.1265C-178.485 183.907 158.401 -45.6112 206.122 68.9868C250.461 175.465 171.964 338.477 331.602 396.657C434.527 434.168 617.805 375.37 800.066 414.696C864.713 428.645 1076.5 456.772 1076.5 456.772M-338.835 20.3996C-171.941 171.18 134.827 -57.733 182.548 56.865C226.888 163.343 148.391 326.355 308.029 384.535C410.954 422.046 594.232 363.249 776.492 402.574C841.14 416.523 1085.23 439.79 1085.23 439.79M-336.237 1.72644C-169.342 152.507 111.254 -69.855 158.975 44.743C203.314 151.221 124.817 314.233 284.455 372.413C387.38 409.924 570.658 351.127 752.919 390.452C817.566 404.401 1092.99 424.694 1092.99 424.694" stroke="url(#paint0_radial_226_681)" stroke-opacity="0.4" stroke-width="2"/>
<defs>
<radialGradient id="paint0_radial_226_681" cx="0" cy="0" r="1" gradientUnits="userSpaceOnUse" gradientTransform="translate(408.292 362.314) rotate(-152.787) scale(889.014 276.951)">
<stop stop-color="#799BFF" stop-opacity="0.9"/>
<stop offset="1" stop-color="#799BFF" stop-opacity="0"/>
</radialGradient>
</defs>
</svg>
