<svg width="1380" height="560" viewBox="0 0 1380 560" fill="none" xmlns="http://www.w3.org/2000/svg">
<path fill-rule="evenodd" clip-rule="evenodd" d="M1075 45.5C1075 38.5326 1075 35.0488 1074.54 32.1331C1071.99 15.8107 1059.19 3.00628 1042.87 0.455637C1039.95 0 1036.47 0 1029.5 0L60.8 0C39.518 0 28.877 0 20.7484 4.14175C13.5982 7.78494 7.78494 13.5982 4.14175 20.7484C0 28.877 0 39.518 0 60.8V499.2C0 520.482 0 531.123 4.14175 539.252C7.78494 546.402 13.5982 552.215 20.7484 555.858C28.877 560 39.518 560 60.8001 560H1319.2C1340.48 560 1351.12 560 1359.25 555.858C1366.4 552.215 1372.22 546.402 1375.86 539.252C1380 531.123 1380 520.482 1380 499.2V151.8C1380 130.518 1380 119.877 1375.86 111.748C1372.22 104.598 1366.4 98.7849 1359.25 95.1418C1351.12 91 1340.48 91 1319.2 91H1120.5C1113.53 91 1110.05 91 1107.13 90.5444C1090.81 87.9937 1078.01 75.1893 1075.46 58.8669C1075 55.9512 1075 52.4674 1075 45.5Z" fill="#D2D4FF"/>
</svg>
